<?xml version="1.0" standalone="no"?><!DOCTYPE svg PUBLIC "-//W3C//DTD SVG 1.1//EN"
        "http://www.w3.org/Graphics/SVG/1.1/DTD/svg11.dtd">
<svg t="1506332658944" class="icon" style="" viewBox="0 0 1024 1024" version="1.1" xmlns="http://www.w3.org/2000/svg"
     p-id="5925" xmlns:xlink="http://www.w3.org/1999/xlink" width="200" height="200">
    <defs>
        <style type="text/css"></style>
    </defs>
    <path d="M960 960H64v-64h896v64zM886.4 273.6L384 776 192 832l56-192 502.4-502.4c4-4 9.6-6.4 14.4-6.4 4 0 8 1.6 10.4 4L888 248c7.2 7.2 5.6 17.6-1.6 25.6z m-174.4 84L666.4 312l-361.6 361.6-18.4 64 64-18.4 361.6-361.6z m97.6-97.6L764 214.4 712 266.4l45.6 45.6L809.6 260z"
          fill="#108ee9" p-id="5926"></path>
</svg>